<svg width="82" height="102" viewBox="0 0 82 102" fill="none" xmlns="http://www.w3.org/2000/svg">
<path fill-rule="evenodd" clip-rule="evenodd" d="M45.9552 6.60442C44.8286 6.24375 43.4091 6.21353 41.7493 6.85989C42.3819 7.52365 42.4038 8.57339 41.7783 9.26378C41.1232 9.98686 40.0059 10.0419 39.2828 9.38679L37.5147 7.78476C36.8488 7.17373 35.7344 6.69684 34.3357 6.56169C32.956 6.42837 31.4445 6.64486 30.1014 7.25107C28.7715 7.8513 27.6301 8.82027 26.8969 10.1995C26.1652 11.576 25.7706 13.4929 26.1606 16.1051C26.2306 16.5737 26.1094 17.0508 25.8243 17.4292C25.5391 17.8076 25.1139 18.0557 24.6442 18.1176C22.5614 18.3921 21.4705 19.3347 20.9421 20.3339C20.3811 21.3949 20.3314 22.7544 20.7931 23.9953C21.2519 25.2284 22.1548 26.1872 23.3129 26.5796C24.4355 26.96 26.1086 26.9108 28.3263 25.5143C28.7663 25.2372 29.306 25.168 29.8017 25.3251C30.2974 25.4823 30.6986 25.8498 30.8986 26.3298L32.6224 30.4676C38.4212 24.9071 45.569 24.2731 50.7455 25.4372C51.6974 25.6513 52.2956 26.5965 52.0815 27.5485C51.8674 28.5005 50.9222 29.0986 49.9702 28.8845C45.1948 27.8106 38.4675 28.5737 33.4279 34.808C33.0366 35.2921 32.4193 35.5346 31.803 35.4461C31.1867 35.3577 30.6625 34.9514 30.4231 34.3767L28.3814 29.4759C26.1531 30.4416 24.0357 30.5554 22.1789 29.9262C19.8559 29.139 18.2488 27.2897 17.4815 25.2275C16.7171 23.1731 16.7251 20.75 17.8185 18.6822C18.7262 16.9654 20.3059 15.6367 22.4967 14.9735C22.3631 12.4682 22.832 10.3184 23.7769 8.54098C24.922 6.38675 26.6969 4.91099 28.6478 4.03045C30.5855 3.1559 32.7193 2.85558 34.6756 3.04461C36.1387 3.186 37.5877 3.6111 38.803 4.35556C41.7232 2.72893 44.5675 2.45004 47.0326 3.2392C49.754 4.11043 51.7641 6.20668 52.7745 8.64025C53.7854 11.0748 53.8487 13.9773 52.5043 16.5126C51.1398 19.0859 48.4662 21.0219 44.5129 21.7731C43.5543 21.9553 42.6295 21.3259 42.4474 20.3673C42.2652 19.4087 42.8946 18.484 43.8532 18.3018C46.9744 17.7087 48.6175 16.3 49.3826 14.8572C50.1678 13.3764 50.1738 11.5912 49.5112 9.99518C48.8481 8.39819 47.5687 7.12096 45.9552 6.60442Z" fill="#FB7F05"/>
<path d="M33.992 45.7929C34.2061 45.6182 34.2527 45.3691 34.1123 45.1744C33.9655 44.9725 33.7312 44.9389 33.4977 45.1071C33.0208 45.448 32.5485 45.7955 32.0808 46.15C31.8472 46.3254 31.8071 46.5609 31.9533 46.7627C32.0937 46.9581 32.3344 46.9911 32.5686 46.8365C32.7155 46.7355 32.8494 46.6281 33.0027 46.5201C38.8949 57.4588 60.0606 57.2479 59.1069 36.5946C59.1069 34.1904 55.4327 34.1147 55.4579 36.6347C56.0506 55.9215 38.0803 54.1423 33.5837 46.1028L33.992 45.7929Z" fill="#298432"/>
<path fill-rule="evenodd" clip-rule="evenodd" d="M40.0974 39.8604C40.6926 39.8604 41.1106 39.5997 41.4464 39.1792C42.2066 38.2248 42.1936 36.6695 41.4399 35.7223C40.7308 34.8346 39.5714 34.8281 38.85 35.7158C38.084 36.6565 38.0768 38.2455 38.8435 39.1927C39.1858 39.6133 39.6096 39.8669 40.0974 39.8604ZM39.9201 36.5957C40.2436 36.6358 40.4836 36.9626 40.4778 37.363C40.4714 37.7901 40.1614 38.1375 39.8004 38.1039C39.4271 38.0773 39.1612 37.6969 39.1987 37.2498C39.2369 36.8357 39.5462 36.5556 39.9201 36.5957ZM46.9387 37.374C46.9109 37.3443 46.9225 37.2958 46.9607 37.2815C47.6187 37.0344 48.3673 36.8791 49.0757 36.8791C49.4749 36.8791 49.7654 36.599 49.7589 36.2373C49.7518 35.8277 49.4141 35.5683 49.0556 35.589C48.9664 35.5948 48.8784 35.5993 48.7891 35.6045C48.5672 35.6162 48.3446 35.6285 48.1227 35.6576C46.9193 35.8284 45.8504 36.2858 44.9311 37.0978C44.6878 37.3093 44.4581 37.5416 44.2815 37.8147C44.0926 38.1013 44.1126 38.3879 44.3151 38.6273C44.5112 38.8595 44.8088 38.9275 45.1064 38.7845C45.8705 38.4092 46.601 38.5115 47.3042 38.9281C47.3819 38.976 47.4543 39.0291 47.5275 39.0815C47.6006 39.1345 47.6724 39.1876 47.7507 39.2348C48.0955 39.4399 48.5284 39.2891 48.67 38.9275C48.7781 38.6544 48.7037 38.3678 48.4533 38.1699C48.0412 37.8354 47.5876 37.5759 47.081 37.4323C47.0784 37.4316 46.9717 37.4096 46.9387 37.374Z" fill="#298432"/>
<path d="M4.69802 74.2552C4.34242 75.0348 4.06204 75.7802 3.85689 76.4914C3.66541 77.2026 3.57651 77.8591 3.59019 78.4609C3.60387 79.1721 3.71328 79.7602 3.91843 80.2252C4.13726 80.6902 4.48603 81.039 4.96472 81.2715C5.44341 81.5177 6.07255 81.6408 6.85213 81.6408H8.61645C9.3003 81.6408 9.86105 81.5929 10.2987 81.4972C10.7501 81.4151 11.0783 81.292 11.2834 81.1279C11.4886 80.9774 11.5912 80.7928 11.5912 80.574C11.6049 80.4235 11.5501 80.2799 11.4271 80.1431C11.3176 80.0064 11.1125 79.8901 10.8116 79.7944C10.5517 79.7123 10.2303 79.6371 9.84737 79.5687C9.46442 79.514 9.04728 79.4798 8.59594 79.4661C8.40446 79.4525 8.16511 79.4388 7.8779 79.4251V76.4709H14.6685L14.8326 77.907L14.6685 79.4251H13.8479C13.9573 79.5756 14.0325 79.7534 14.0735 79.9585C14.1282 80.1773 14.1556 80.3962 14.1556 80.615C14.1419 81.3125 13.9026 81.9622 13.4376 82.564C12.9725 83.1794 12.3161 83.6718 11.4681 84.0411C10.6338 84.4103 9.68325 84.595 8.61645 84.595H6.85213C5.64856 84.595 4.60912 84.3214 3.7338 83.7744C2.85847 83.241 2.18831 82.5093 1.72329 81.5792C1.27195 80.6492 1.03945 79.6166 1.02577 78.4814C1.02577 77.7018 1.16254 76.8265 1.43608 75.8554C1.72329 74.8707 2.06521 73.9475 2.46184 73.0859L4.69802 74.2552ZM20.8845 67.6288L15.53 70.0291L18.2585 72.8397C19.0518 73.6466 19.4621 74.5766 19.4894 75.6298C19.5168 76.6692 19.1749 77.5651 18.4637 78.3173C17.7525 79.0558 16.7951 79.4251 15.5915 79.4251H11.0166V76.4709H15.6531C16.0223 76.4709 16.3096 76.3957 16.5147 76.2452C16.7199 76.0811 16.8088 75.8691 16.7814 75.6093C16.7541 75.3494 16.6104 75.0895 16.3506 74.8297L12.6988 71.1369L13.3348 67.8339L19.8382 64.9413L20.8845 67.6288ZM13.581 65.4747L18.7098 63.2385L19.0791 64.2232L13.4579 66.6646L13.581 65.4747ZM26.1741 72.5525V78.3378C26.1741 79.6371 25.9416 80.7586 25.4766 81.7023C25.0252 82.646 24.355 83.3641 23.466 83.8564C22.5907 84.3488 21.5171 84.595 20.2451 84.595H18.9527V81.6408H20.2451C21.1068 81.6408 21.7701 81.5382 22.2351 81.333C22.7138 81.1416 23.0489 80.8065 23.2404 80.3278C23.4455 79.8628 23.5481 79.1994 23.5481 78.3378V72.5525H26.1741ZM23.466 67.4441C23.9311 67.4441 24.3961 67.4441 24.8611 67.4441C25.3124 67.4441 25.7569 67.4441 26.1946 67.4441C26.1946 68.0459 26.1946 68.4973 26.1946 68.7982C26.1946 69.0854 26.1946 69.523 26.1946 70.1111C25.5791 70.1111 25.121 70.1111 24.8201 70.1111C24.5192 70.1111 24.0678 70.1111 23.466 70.1111C23.466 69.4957 23.466 69.0443 23.466 68.7571C23.466 68.4562 23.466 68.0186 23.466 67.4441ZM32.5056 79.4251C31.5346 79.4251 30.7345 79.2336 30.1053 78.8507C29.4899 78.454 29.0385 77.9138 28.7513 77.23C28.4641 76.5461 28.3205 75.7392 28.3205 74.8092V65.7208H30.9259V74.8092C30.9259 75.3289 30.9533 75.6982 31.008 75.917C31.0764 76.1358 31.2132 76.2863 31.4183 76.3683C31.6371 76.4367 31.9996 76.4709 32.5056 76.4709H33.2442L33.3673 77.989L33.2442 79.4251H32.5056ZM33.014 76.4709H35.2912C35.9067 76.4709 36.3444 76.3683 36.6042 76.1632C36.8641 75.9443 36.9803 75.6366 36.953 75.24C36.9256 74.857 36.8572 74.3441 36.7478 73.7013C36.6521 73.0585 36.5427 72.4362 36.4196 71.8344L38.8814 71.219C39.0455 71.9028 39.196 72.6482 39.3328 73.4551C39.4832 74.2621 39.5584 74.9254 39.5584 75.4451C39.5721 76.129 39.4285 76.7786 39.1276 77.3941C38.8267 77.9959 38.3685 78.4882 37.7531 78.8712C37.1513 79.2405 36.3991 79.4251 35.4964 79.4251H33.014V76.4709ZM33.5885 66.5004C33.9441 66.5004 34.2108 66.5004 34.3886 66.5004C34.58 66.5004 34.8604 66.5004 35.2297 66.5004C35.4895 66.5004 35.7562 66.5004 36.0298 66.5004C36.0298 67.0612 36.0298 67.4715 36.0298 67.7314C36.0298 67.9912 36.0298 68.3947 36.0298 68.9418C35.469 68.9418 35.0519 68.9418 34.7783 68.9418C34.5185 68.9418 34.1219 68.9418 33.5885 68.9418C33.5885 68.381 33.5885 67.9707 33.5885 67.7108C33.5885 67.4373 33.5885 67.0338 33.5885 66.5004ZM37.4248 66.5004C37.9856 66.5004 38.3959 66.5004 38.6557 66.5004C38.9293 66.5004 39.3396 66.5004 39.8867 66.5004C39.8867 67.0612 39.8867 67.4715 39.8867 67.7314C39.8867 67.9912 39.8867 68.3947 39.8867 68.9418C39.3259 68.9418 38.9088 68.9418 38.6352 68.9418C38.3754 68.9418 37.9719 68.9418 37.4248 68.9418C37.4248 68.381 37.4248 67.9707 37.4248 67.7108C37.4248 67.4373 37.4248 67.0338 37.4248 66.5004ZM45.2469 74.3168C44.905 75.0417 44.6383 75.7529 44.4469 76.4504C44.2691 77.1342 44.1802 77.7976 44.1802 78.4404C44.1802 79.1516 44.2827 79.7397 44.4879 80.2047C44.7067 80.6834 45.0486 81.039 45.5136 81.2715C45.9923 81.5177 46.6352 81.6408 47.4421 81.6408H49.2064C50.0817 81.6408 50.7382 81.5655 51.1759 81.4151C51.6136 81.2647 51.9076 81.0048 52.058 80.6355C52.2222 80.2662 52.3042 79.7192 52.3042 78.9943V72.5525H54.9097V78.9943C54.9097 80.7176 54.4447 82.0784 53.5146 83.0768C52.5983 84.0889 51.1622 84.595 49.2064 84.595H47.4421C46.2112 84.595 45.158 84.3214 44.2827 83.7744C43.4074 83.2273 42.7441 82.4819 42.2927 81.5382C41.8414 80.6082 41.6157 79.5756 41.6157 78.4404C41.6157 77.6061 41.7593 76.7171 42.0466 75.7734C42.3338 74.8297 42.6757 73.9612 43.0723 73.1679L45.2469 74.3168ZM58.8076 78.2557C58.5204 78.5977 58.1374 78.878 57.6587 79.0969C57.1937 79.3157 56.6877 79.4251 56.1406 79.4251C55.4568 79.4251 54.8481 79.2336 54.3147 78.8507C53.795 78.4677 53.3847 77.9548 53.0838 77.312C52.7966 76.6555 52.653 75.9443 52.653 75.1784H54.9097C54.9097 75.6298 55.0191 75.958 55.2379 76.1632C55.4704 76.3683 55.7987 76.4709 56.2227 76.4709C56.633 76.4709 56.9544 76.3683 57.1869 76.1632C57.4194 75.9443 57.5357 75.6161 57.5357 75.1784L57.5151 72.5525H60.1206V75.1784C60.1206 75.6161 60.23 75.9375 60.4488 76.1427C60.6677 76.3478 60.9754 76.4572 61.372 76.4709C61.7687 76.4572 62.0695 76.3546 62.2747 76.1632C62.4799 75.958 62.5824 75.6298 62.5824 75.1784V72.5525H65.1879V75.2195C65.1879 75.6708 65.2905 75.9922 65.4956 76.1837C65.7144 76.3752 66.0632 76.4709 66.5419 76.4709H68.0395L68.1831 78.0301L68.0395 79.4251H66.6445C66.0427 79.4251 65.5093 79.3225 65.0443 79.1174C64.5793 78.8985 64.2237 78.6113 63.9775 78.2557C63.745 78.584 63.3757 78.8644 62.8696 79.0969C62.3636 79.3157 61.8712 79.4251 61.3925 79.4251C60.8591 79.4251 60.3736 79.3225 59.9359 79.1174C59.512 78.8985 59.1359 78.6113 58.8076 78.2557ZM67.7525 76.4709H70.2143C71.158 76.4709 72.0539 76.3888 72.9018 76.2247C73.7635 76.0469 74.5841 75.8007 75.3637 75.4862C76.1432 75.1716 76.9912 74.7544 77.9076 74.2347L78.3999 73.9475L78.5025 74.9322L77.8255 74.6655C76.4578 74.1869 75.2611 73.7971 74.2353 73.4962C73.2232 73.1816 72.5804 73.0243 72.3069 73.0243C72.0197 73.0243 71.7803 73.1132 71.5888 73.291C71.3974 73.4551 71.2264 73.7424 71.076 74.1527L68.7782 73.4141C69.0928 72.3473 69.5578 71.5335 70.1733 70.9728C70.7887 70.412 71.4999 70.1317 72.3069 70.1317C72.8129 70.1317 73.6062 70.3163 74.6867 70.6856C75.7671 71.0412 77.0938 71.5472 78.6666 72.2037C79.1727 72.3952 79.5351 72.5388 79.754 72.6345L80.1437 75.8554L79.3642 76.3478C78.2563 77.0317 77.2511 77.5856 76.3484 78.0095C75.4594 78.4335 74.502 78.7755 73.4763 79.0353C72.4642 79.2952 71.3768 79.4251 70.2143 79.4251H67.7525V76.4709Z" fill="#18181B"/>
<path d="M20.7113 95.4645V97.8027C20.7113 98.3002 20.6256 98.7203 20.4543 99.063C20.2885 99.4057 20.0425 99.6655 19.7163 99.8424C19.3902 100.019 18.9922 100.108 18.5224 100.108H18V99.3615H18.5224C18.8927 99.3615 19.1885 99.309 19.4096 99.204C19.6362 99.0989 19.802 98.9331 19.907 98.7065C20.0121 98.4798 20.0646 98.1786 20.0646 97.8027V95.4645H20.7113ZM20.7113 96.6419C20.7113 96.8685 20.7666 97.0316 20.8772 97.1311C20.9877 97.225 21.1618 97.272 21.3995 97.272H21.4824L21.5322 97.6534L21.4824 98.0183H21.3995C21.2061 98.0183 21.0292 97.9768 20.8689 97.8939C20.7086 97.811 20.5759 97.6673 20.4709 97.4627C20.3714 97.2582 20.3216 96.9846 20.3216 96.6419H20.7113ZM23.7629 95.4645V96.6419C23.7629 96.8685 23.8182 97.0316 23.9288 97.1311C24.0393 97.225 24.2134 97.272 24.4511 97.272H24.874L24.9154 97.6617L24.874 98.0183H24.4511C24.2577 98.0183 24.0559 97.9685 23.8458 97.869C23.6413 97.764 23.4672 97.6009 23.3235 97.3798C23.1853 97.1587 23.1162 96.8796 23.1162 96.5424V95.4645H23.7629ZM23.6468 96.6833C23.6468 96.9818 23.5777 97.2306 23.4396 97.4296C23.3069 97.6286 23.1355 97.7778 22.9255 97.8773C22.7154 97.9713 22.4999 98.0183 22.2787 98.0183H21.3998V97.272H22.2787C22.5607 97.272 22.7707 97.214 22.9089 97.0979C23.0471 96.9818 23.1162 96.7966 23.1162 96.5424L23.6468 96.6833ZM21.8144 93.6984C21.936 93.6984 22.0272 93.6984 22.088 93.6984C22.1544 93.6984 22.2511 93.6984 22.3782 93.6984C22.4667 93.6984 22.5551 93.6984 22.6436 93.6984C22.6436 93.8863 22.6436 94.0273 22.6436 94.1213C22.6436 94.2097 22.6436 94.3451 22.6436 94.5275C22.4556 94.5275 22.3147 94.5275 22.2207 94.5275C22.1323 94.5275 21.9968 94.5275 21.8144 94.5275C21.8144 94.3396 21.8144 94.2014 21.8144 94.113C21.8144 94.019 21.8144 93.8808 21.8144 93.6984ZM23.2986 93.6984C23.4865 93.6984 23.6247 93.6984 23.7132 93.6984C23.8071 93.6984 23.9453 93.6984 24.1278 93.6984C24.1278 93.8863 24.1278 94.0273 24.1278 94.1213C24.1278 94.2097 24.1278 94.3451 24.1278 94.5275C23.9398 94.5275 23.7989 94.5275 23.7049 94.5275C23.6164 94.5275 23.481 94.5275 23.2986 94.5275C23.2986 94.3396 23.2986 94.2014 23.2986 94.113C23.2986 94.019 23.2986 93.8808 23.2986 93.6984ZM28.3994 97.4876C28.2888 97.659 28.1451 97.7916 27.9682 97.8856C27.7913 97.974 27.5951 98.0183 27.3795 98.0183C27.1805 98.0183 26.9815 97.9713 26.7825 97.8773C26.5835 97.7833 26.4315 97.6534 26.3265 97.4876C26.1938 97.6645 26.0391 97.7972 25.8622 97.8856C25.6853 97.974 25.4973 98.0183 25.2983 98.0183H24.7926V97.272H25.2983C25.5692 97.272 25.7599 97.2195 25.8705 97.1145C25.981 97.0039 26.0363 96.8132 26.0363 96.5424V95.4645H26.683V96.5424C26.683 96.8077 26.7355 96.9956 26.8406 97.1062C26.9511 97.2168 27.1308 97.272 27.3795 97.272C27.6338 97.272 27.8134 97.2168 27.9185 97.1062C28.029 96.9956 28.0843 96.8077 28.0843 96.5424V95.4645H28.731V96.5424C28.731 96.8022 28.7946 96.9901 28.9217 97.1062C29.0489 97.2168 29.2313 97.272 29.469 97.272C29.7177 97.272 29.8946 97.2168 29.9996 97.1062C30.1047 96.9956 30.1572 96.8077 30.1572 96.5424V95.4645H30.8039V96.5424C30.8039 96.8132 30.8592 97.0039 30.9697 97.1145C31.0803 97.2195 31.271 97.272 31.5419 97.272H32.0476L32.0891 97.6451L32.0476 98.0183H31.5419C31.3429 98.0183 31.1549 97.974 30.978 97.8856C30.8011 97.7972 30.6464 97.6645 30.5137 97.4876C30.4087 97.6534 30.2567 97.7833 30.0577 97.8773C29.8587 97.9713 29.6597 98.0183 29.4607 98.0183C29.2672 98.0183 29.0765 97.974 28.8886 97.8856C28.7062 97.7916 28.5431 97.659 28.3994 97.4876ZM28.0511 92.4961C28.228 92.4961 28.3607 92.4961 28.4491 92.4961C28.5376 92.4961 28.6675 92.4961 28.8388 92.4961C28.8388 92.673 28.8388 92.8057 28.8388 92.8941C28.8388 92.977 28.8388 93.1069 28.8388 93.2838C28.6619 93.2838 28.5293 93.2838 28.4408 93.2838C28.3579 93.2838 28.228 93.2838 28.0511 93.2838C28.0511 93.1069 28.0511 92.9743 28.0511 92.8858C28.0511 92.7974 28.0511 92.6675 28.0511 92.4961ZM27.2634 93.5657C27.385 93.5657 27.4763 93.5657 27.5371 93.5657C27.6034 93.5657 27.7001 93.5657 27.8273 93.5657C27.9157 93.5657 28.0041 93.5657 28.0926 93.5657C28.0926 93.7537 28.0926 93.8946 28.0926 93.9886C28.0926 94.077 28.0926 94.2125 28.0926 94.3949C27.9046 94.3949 27.7637 94.3949 27.6697 94.3949C27.5813 94.3949 27.4458 94.3949 27.2634 94.3949C27.2634 94.2069 27.2634 94.0687 27.2634 93.9803C27.2634 93.8863 27.2634 93.7481 27.2634 93.5657ZM28.7891 93.5657C28.977 93.5657 29.1152 93.5657 29.2036 93.5657C29.2976 93.5657 29.4358 93.5657 29.6182 93.5657C29.6182 93.7537 29.6182 93.8946 29.6182 93.9886C29.6182 94.077 29.6182 94.2125 29.6182 94.3949C29.4303 94.3949 29.2893 94.3949 29.1954 94.3949C29.1069 94.3949 28.9715 94.3949 28.7891 94.3949C28.7891 94.2069 28.7891 94.0687 28.7891 93.9803C28.7891 93.8863 28.7891 93.7481 28.7891 93.5657ZM34.3297 95.4645V96.6419C34.3297 96.8685 34.385 97.0316 34.4956 97.1311C34.6061 97.225 34.7803 97.272 35.0179 97.272H35.4408L35.4823 97.6617L35.4408 98.0183H35.0179C34.8245 98.0183 34.6227 97.9685 34.4127 97.869C34.2081 97.764 34.034 97.6009 33.8903 97.3798C33.7521 97.1587 33.683 96.8796 33.683 96.5424V95.4645H34.3297ZM34.2137 96.6833C34.2137 96.9818 34.1446 97.2306 34.0064 97.4296C33.8737 97.6286 33.7024 97.7778 33.4923 97.8773C33.2823 97.9713 33.0667 98.0183 32.8456 98.0183H31.9667V97.272H32.8456C33.1275 97.272 33.3375 97.214 33.4757 97.0979C33.6139 96.9818 33.683 96.7966 33.683 96.5424L34.2137 96.6833ZM31.7013 99.2869C31.8229 99.2869 31.9169 99.2869 31.9833 99.2869C32.0441 99.2869 32.138 99.2869 32.2652 99.2869C32.3536 99.2869 32.442 99.2869 32.5305 99.2869C32.5305 99.4748 32.5305 99.613 32.5305 99.7014C32.5305 99.7954 32.5305 99.9336 32.5305 100.116C32.3425 100.116 32.2016 100.116 32.1076 100.116C32.0192 100.116 31.8838 100.116 31.7013 100.116C31.7013 99.9281 31.7013 99.7871 31.7013 99.6932C31.7013 99.6047 31.7013 99.4693 31.7013 99.2869ZM33.1855 99.2869C33.3735 99.2869 33.5117 99.2869 33.6001 99.2869C33.6941 99.2869 33.8323 99.2869 34.0147 99.2869C34.0147 99.4748 34.0147 99.613 34.0147 99.7014C34.0147 99.7954 34.0147 99.9336 34.0147 100.116C33.8267 100.116 33.6858 100.116 33.5918 100.116C33.5034 100.116 33.3679 100.116 33.1855 100.116C33.1855 99.9281 33.1855 99.7871 33.1855 99.6932C33.1855 99.6047 33.1855 99.4693 33.1855 99.2869ZM35.3594 97.272H36.2715C36.5257 97.272 36.7081 97.2168 36.8187 97.1062C36.9348 96.9901 36.9873 96.8353 36.9762 96.6419C36.9652 96.4816 36.932 96.2549 36.8767 95.962C36.827 95.669 36.7745 95.3954 36.7192 95.1411L37.3494 94.9753C37.4102 95.2296 37.4682 95.5198 37.5235 95.8459C37.5787 96.1665 37.6119 96.4263 37.623 96.6253C37.634 96.8575 37.587 97.0813 37.482 97.2969C37.3825 97.5125 37.2277 97.6866 37.0177 97.8193C36.8132 97.9519 36.5644 98.0183 36.2715 98.0183H35.3594V97.272ZM35.5667 99.2786C35.7104 99.2786 35.8514 99.2786 35.9895 99.2786C36.1277 99.2786 36.2632 99.2786 36.3958 99.2786C36.3958 99.4665 36.3958 99.6047 36.3958 99.6932C36.3958 99.7871 36.3958 99.9253 36.3958 100.108C36.2079 100.108 36.0669 100.108 35.973 100.108C35.8845 100.108 35.7491 100.108 35.5667 100.108C35.5667 99.9198 35.5667 99.7788 35.5667 99.6849C35.5667 99.5964 35.5667 99.461 35.5667 99.2786ZM41.6641 95.8708C41.5038 96.219 41.3794 96.5507 41.291 96.8657C41.2026 97.1753 41.1611 97.4572 41.1666 97.7115C41.1777 98.0321 41.2385 98.314 41.349 98.5572C41.4596 98.806 41.6227 99.0022 41.8382 99.1459C42.0593 99.2896 42.3302 99.3615 42.6508 99.3615H43.5463C43.889 99.3615 44.1626 99.3256 44.3671 99.2537C44.5772 99.1818 44.732 99.0685 44.8315 98.9137C44.931 98.7645 44.9862 98.5655 44.9973 98.3168C45.0028 98.2338 44.9945 98.1786 44.9724 98.1509C44.9558 98.1288 44.9033 98.1067 44.8149 98.0846L43.0571 97.612C42.9134 97.1808 42.8802 96.7773 42.9576 96.4014C43.0405 96.02 43.2008 95.6939 43.4385 95.423C43.6375 95.1964 43.8669 95.0223 44.1267 94.9007C44.3865 94.7735 44.6573 94.7072 44.9393 94.7017C45.083 94.6961 45.235 94.7044 45.3953 94.7265C45.5556 94.7431 45.6993 94.7652 45.8265 94.7929L45.6772 95.5225C45.4727 95.4617 45.2322 95.4368 44.9558 95.4479C44.7458 95.4534 44.5523 95.4976 44.3754 95.5806C44.2041 95.6579 44.0521 95.7713 43.9194 95.9205C43.7757 96.0808 43.6762 96.2439 43.6209 96.4097C43.5656 96.5755 43.5518 96.7662 43.5795 96.9818C43.6955 97.0095 43.9498 97.0786 44.3423 97.1891C44.4749 97.2278 44.5965 97.2637 44.7071 97.2969C44.8232 97.3245 44.9199 97.3494 44.9973 97.3715C45.1576 97.4157 45.2847 97.4821 45.3787 97.5705C45.4782 97.659 45.5501 97.7668 45.5943 97.8939C45.6385 98.021 45.6551 98.173 45.644 98.3499C45.633 98.7203 45.5418 99.0354 45.3704 99.2952C45.1991 99.5605 44.9586 99.7622 44.6491 99.9004C44.345 100.039 43.9774 100.108 43.5463 100.108H42.6508C42.2196 100.108 41.8438 99.9972 41.5232 99.7761C41.2081 99.555 40.9649 99.262 40.7935 98.8972C40.6221 98.5379 40.5309 98.1482 40.5199 97.7281C40.5144 97.4075 40.5613 97.0592 40.6608 96.6833C40.7659 96.3019 40.9013 95.926 41.0671 95.5557L41.6641 95.8708ZM48.4485 98.0183C48.0726 98.0183 47.7797 97.9492 47.5696 97.811C47.3596 97.6673 47.2103 97.4683 47.1219 97.214C47.039 96.9597 46.9975 96.6446 46.9975 96.2688L46.9892 92.6371H47.6359L47.6442 96.2688C47.6442 96.5672 47.6608 96.7828 47.694 96.9155C47.7327 97.0482 47.8045 97.1421 47.9096 97.1974C48.0201 97.2472 48.1998 97.272 48.4485 97.272H48.5729L48.6143 97.6534L48.5729 98.0183H48.4485ZM52.5061 93.9471L53.7664 95.8873C53.888 96.0753 53.9682 96.2715 54.0069 96.476C54.0511 96.675 54.0483 96.8657 53.9986 97.0482C53.9544 97.2306 53.8687 97.3936 53.7415 97.5374C53.5868 97.7087 53.3657 97.8359 53.0782 97.9188C52.7908 97.9962 52.4149 98.0348 51.9506 98.0348C51.5028 98.0348 51.0579 97.9575 50.6156 97.8027C50.1734 97.6424 49.8086 97.4157 49.5212 97.1228C49.2337 96.8298 49.09 96.4899 49.09 96.1029C49.09 95.8044 49.1591 95.5308 49.2973 95.2821C49.4355 95.0333 49.6207 94.8371 49.8528 94.6934C50.0905 94.5496 50.3503 94.4778 50.6322 94.4778C50.9031 94.4778 51.1546 94.5496 51.3868 94.6934C51.6189 94.8371 51.8041 95.0333 51.9423 95.2821C52.0805 95.5308 52.1496 95.8017 52.1496 96.0946C52.1496 96.5037 52.0031 96.8547 51.7101 97.1477C51.4227 97.4351 51.0468 97.6534 50.5825 97.8027C50.1237 97.9464 49.6428 98.0183 49.1398 98.0183H48.493V97.272H49.2641C49.6898 97.272 50.0712 97.2278 50.4084 97.1394C50.7511 97.0509 51.0192 96.9238 51.2126 96.758C51.4061 96.5866 51.5028 96.3821 51.5028 96.1444C51.5028 95.8735 51.4227 95.6524 51.2624 95.4811C51.1076 95.3097 50.8948 95.224 50.6239 95.224C50.3531 95.224 50.1375 95.3125 49.9772 95.4894C49.8169 95.6607 49.7367 95.8791 49.7367 96.1444C49.7367 96.3931 49.8279 96.6032 50.0104 96.7745C50.1928 96.9404 50.4415 97.0647 50.7566 97.1477C51.0772 97.2306 51.442 97.272 51.8511 97.272C52.2435 97.272 52.5614 97.2527 52.8046 97.214C53.0533 97.1753 53.2164 97.1145 53.2938 97.0316C53.3712 96.9487 53.4044 96.8492 53.3933 96.7331C53.3822 96.6115 53.3242 96.4678 53.2192 96.3019L51.9589 94.3451L52.5061 93.9471ZM56.5009 95.4645V97.8027C56.5009 98.3002 56.4152 98.7203 56.2438 99.063C56.078 99.4057 55.832 99.6655 55.5059 99.8424C55.1798 100.019 54.7818 100.108 54.3119 100.108H53.7895V99.3615H54.3119C54.6823 99.3615 54.978 99.309 55.1991 99.204C55.4257 99.0989 55.5916 98.9331 55.6966 98.7065C55.8016 98.4798 55.8541 98.1786 55.8541 97.8027V95.4645H56.5009ZM55.7629 93.4662C55.9066 93.4662 56.0476 93.4662 56.1858 93.4662C56.324 93.4662 56.4594 93.4662 56.5921 93.4662C56.5921 93.6542 56.5921 93.7951 56.5921 93.8891C56.5921 93.9775 56.5921 94.113 56.5921 94.2954C56.4041 94.2954 56.2632 94.2954 56.1692 94.2954C56.0808 94.2954 55.9453 94.2954 55.7629 94.2954C55.7629 94.1074 55.7629 93.9692 55.7629 93.8808C55.7629 93.7868 55.7629 93.6486 55.7629 93.4662ZM58.2841 99.3615C58.6711 99.3615 58.9696 99.3145 59.1796 99.2205C59.3952 99.1321 59.5444 98.9939 59.6274 98.806C59.7103 98.618 59.7517 98.3693 59.7517 98.0597V96.4346C59.7517 96.0974 59.6743 95.8348 59.5196 95.6469C59.3648 95.4534 59.1354 95.3567 58.8314 95.3567C58.5495 95.3567 58.3284 95.4562 58.168 95.6552C58.0133 95.8487 57.9359 96.1085 57.9359 96.4346C57.9359 96.7386 58.0077 96.9542 58.1515 97.0813C58.2952 97.2029 58.5246 97.2637 58.8397 97.2637H60.0336V98.01H58.8397C58.3753 98.01 57.9995 97.8718 57.712 97.5954C57.4301 97.319 57.2891 96.9321 57.2891 96.4346C57.2891 96.0974 57.3527 95.7906 57.4799 95.5142C57.6125 95.2378 57.7949 95.0195 58.0271 94.8592C58.2648 94.6989 58.5329 94.6187 58.8314 94.6187C59.1464 94.6187 59.4228 94.6961 59.6605 94.8509C59.8982 95.0002 60.0806 95.213 60.2078 95.4894C60.3349 95.7657 60.3985 96.0808 60.3985 96.4346V98.0597C60.3985 98.4688 60.3266 98.8253 60.1829 99.1293C60.0447 99.4333 59.8181 99.671 59.503 99.8424C59.1934 100.019 58.7871 100.108 58.2841 100.108H57.3969V99.3615H58.2841ZM63.5211 95.4645V97.8027C63.5211 98.3002 63.4354 98.7203 63.2641 99.063C63.0983 99.4057 62.8523 99.6655 62.5261 99.8424C62.2 100.019 61.802 100.108 61.3322 100.108H60.8098V99.3615H61.3322C61.7025 99.3615 61.9983 99.309 62.2194 99.204C62.446 99.0989 62.6118 98.9331 62.7169 98.7065C62.8219 98.4798 62.8744 98.1786 62.8744 97.8027V95.4645H63.5211Z" fill="#18181B"/>
</svg>
